<?xml version="1.0" encoding="UTF-8"?> <svg xmlns="http://www.w3.org/2000/svg" width="46" height="46" viewBox="0 0 46 46" fill="none"><path d="M22.6504 45.3008C35.1599 45.3008 45.3008 35.1599 45.3008 22.6504C45.3008 10.1409 35.1599 0 22.6504 0C10.1409 0 0 10.1409 0 22.6504C0 35.1599 10.1409 45.3008 22.6504 45.3008Z" fill="#163D30"></path><path d="M16.4963 33.6145C14.4392 32.5194 12.8286 30.9819 11.6691 28.9977C10.5095 27.0135 9.92969 24.7459 9.92969 22.1905C9.92969 19.6352 10.5138 17.3633 11.6862 15.3834C12.8544 13.3992 14.4606 11.8617 16.4963 10.7666C18.532 9.67141 20.7954 9.12598 23.2906 9.12598C25.2189 9.12598 27.0184 9.4309 28.6848 10.0365C30.3511 10.642 31.7168 11.4666 32.7776 12.5059L29.1057 16.762C28.4571 16.0276 27.6583 15.4564 26.7178 15.057C25.7772 14.6576 24.7293 14.4557 23.5826 14.4557C22.1954 14.4557 20.9457 14.7907 19.829 15.465C18.7124 16.135 17.8363 17.0669 17.1964 18.2609C16.5565 19.4505 16.2386 20.7647 16.2386 22.1948C16.2386 23.7109 16.5307 25.0594 17.1148 26.2405C17.6989 27.4215 18.5621 28.3492 19.7002 29.0192C20.8383 29.6891 22.1954 30.0284 23.7802 30.0284C24.6907 30.0284 25.541 29.9254 26.3313 29.7192C27.1215 29.5131 27.7013 29.2597 28.0706 28.9547L27.6154 31.9439V24.9564H22.8697V20.1463H33.1384V32.9488C31.8586 33.6618 30.3812 34.2287 28.7019 34.6367C27.0227 35.049 25.2748 35.2551 23.4538 35.2551C20.877 35.2551 18.5578 34.7097 16.5006 33.6145H16.4963Z" fill="white"></path></svg> 