<?xml version="1.0" encoding="UTF-8" standalone="no"?>
<!-- Created with Inkscape (http://www.inkscape.org/) -->

<svg
   width="999.99994"
   height="957.383"
   viewBox="0 0 264.58332 253.30758"
   version="1.1"
   id="svg5"
   inkscape:version="1.2.1 (9c6d41e410, 2022-07-14)"
   sodipodi:docname="La Red Logo.svg"
   xml:space="preserve"
   xmlns:inkscape="http://www.inkscape.org/namespaces/inkscape"
   xmlns:sodipodi="http://sodipodi.sourceforge.net/DTD/sodipodi-0.dtd"
   xmlns="http://www.w3.org/2000/svg"
   xmlns:svg="http://www.w3.org/2000/svg"
   xmlns:rdf="http://www.w3.org/1999/02/22-rdf-syntax-ns#"
   xmlns:cc="http://creativecommons.org/ns#"
   xmlns:dc="http://purl.org/dc/elements/1.1/"><title
     id="title2437">Logotipo La Red</title><sodipodi:namedview
     id="namedview7"
     pagecolor="#ffffff"
     bordercolor="#666666"
     borderopacity="1.0"
     inkscape:pageshadow="2"
     inkscape:pageopacity="0.0"
     inkscape:pagecheckerboard="false"
     inkscape:blackoutopacity="0.0"
     inkscape:document-units="px"
     showgrid="false"
     borderlayer="false"
     inkscape:showpageshadow="false"
     showguides="true"
     inkscape:zoom="0.30789825"
     inkscape:cx="201.36522"
     inkscape:cy="461.19132"
     inkscape:window-width="1366"
     inkscape:window-height="705"
     inkscape:window-x="-8"
     inkscape:window-y="-8"
     inkscape:window-maximized="1"
     inkscape:current-layer="layer1"
     inkscape:deskcolor="#d1d1d1"
     showborder="false" /><defs
     id="defs2" /><g
     inkscape:label="Capa 1"
     inkscape:groupmode="layer"
     id="layer1"
     transform="translate(174.90154,-181.44455)"><g
       id="g1312"
       style="fill:#2cbec3;fill-opacity:1;stroke:none"
       transform="matrix(1.6112683,0,0,1.6112683,112.56065,-85.718449)"><path
         id="path726"
         style="color:#000000;fill:#2cbec3;fill-opacity:1;fill-rule:evenodd;stroke:none;paint-order:fill markers stroke"
         d="m -92.804848,169.91432 c -18.636622,0 -35.694252,6.87487 -48.771182,18.22214 l 3.27267,10.38541 c 11.66605,-11.56636 27.73246,-18.70169 45.498512,-18.7017 35.732606,0 64.593986,28.86139 64.59399,64.59399 2e-6,35.73262 -28.861381,64.59348 -64.59399,64.59348 -35.732612,0 -64.593472,-28.86086 -64.593472,-64.59348 0,-7.68189 1.33497,-15.04588 3.78426,-21.87411 h -10.41487 c -2.12856,6.9193 -3.27576,14.26496 -3.27576,21.87411 0,41.08647 33.41338,74.49985 74.499842,74.49985 41.086464,0 74.500365,-33.41338 74.500363,-74.49985 -4e-6,-41.08646 -33.413903,-74.49984 -74.500363,-74.49984 z" /><path
         id="path544"
         style="fill:#2cbec3;fill-opacity:1;fill-rule:evenodd;stroke:none;stroke-width:0.462705;paint-order:fill markers stroke;stop-color:#000000"
         d="m -145.16599,222.54005 v 45.31454 h 11.03757 V 251.684 h 5.70817 l 8.13956,16.17059 h 11.94914 l -9.57771,-18.76991 c 4.89898,-2.37018 7.68584,-6.91886 7.68584,-12.99352 0,-8.96754 -7.06998,-13.5475 -17.17053,-13.5475 z m 37.48453,0.004 v 11.03809 h 31.107146 v -11.03809 z m 34.291964,0 v 45.31093 h 13.472046 c 15.576887,0 22.149036,-10.59436 22.149036,-22.65546 0,-12.0611 -6.572149,-22.65547 -22.149036,-22.65547 z m -60.738924,8.48631 h 7.28792 c 3.67399,0 5.70922,2.81275 5.70922,6.16706 0,3.35435 -2.03523,6.16707 -5.70922,6.16707 h -7.28792 z m 71.776494,0.0377 h 2.898531 c 9.716362,0 10.393681,8.35014 10.393681,14.13144 0,5.78126 -0.677319,14.13195 -10.393681,14.13195 h -2.898531 z m -45.329534,9.42216 v 8.24601 h 31.107146 v -8.24601 z m 0,16.32717 v 11.03757 h 31.107146 v -11.03757 z" /><path
         id="rect642"
         style="fill:#2cbec3;fill-opacity:1;fill-rule:evenodd;stroke:none;stroke-width:0.315479;paint-order:fill markers stroke;stop-color:#000000"
         inkscape:transform-center-x="4.181305"
         inkscape:transform-center-y="-13.29194"
         d="m -174.3022,191.96103 v 26.12812 h 21.96248 l 3.54501,-13.7175 3.545,13.7175 h 8.38502 l -8.23361,-26.12812 h -7.39283 l -6.06836,19.25774 h -8.14731 v -19.25774 z"
         sodipodi:nodetypes="cccccccccccc" /></g></g><metadata
     id="metadata2435"><rdf:RDF><cc:Work
         rdf:about=""><dc:title>Logotipo La Red</dc:title><dc:subject><rdf:Bag><rdf:li>La Red</rdf:li><rdf:li>Logotipo</rdf:li><rdf:li>SVG</rdf:li><rdf:li>Vector</rdf:li><rdf:li>Canal</rdf:li><rdf:li>Televisión</rdf:li><rdf:li>Chile</rdf:li><rdf:li>2021</rdf:li></rdf:Bag></dc:subject></cc:Work></rdf:RDF></metadata></svg>
